<?xml version="1.0" encoding="utf-8"?><!-- Uploaded to: SVG Repo, www.svgrepo.com, Generator: SVG Repo Mixer Tools -->
<svg width="800px" height="800px" viewBox="0 0 128 128" fill="none" xmlns="http://www.w3.org/2000/svg">
<path fill-rule="evenodd" clip-rule="evenodd" d="M109.784 67.5493C110.032 67.4297 110.331 67.5346 110.451 67.7835L119.451 86.5216C119.517 86.6595 119.516 86.82 119.449 86.9574C119.382 87.0948 119.256 87.194 119.107 87.2266L108.739 89.4885C108.685 89.5002 108.63 89.503 108.576 89.4968L36.9435 81.3539C36.6691 81.3227 36.472 81.075 36.5032 80.8007C36.5344 80.5263 36.7821 80.3291 37.0565 80.3603L108.606 88.4938L118.275 86.3844L109.549 68.2165C109.43 67.9676 109.535 67.6688 109.784 67.5493Z" fill="#000000"/>
<path fill-rule="evenodd" clip-rule="evenodd" d="M51.366 30.5C50.3163 30.5 49.3783 31.1558 49.018 32.1418L32.3461 77.7573C32.0118 78.672 32.6242 79.6578 33.5924 79.7634L101.182 87.1308C102.901 87.3181 104.498 86.223 104.943 84.5527L118.511 33.6438C118.934 32.0568 117.738 30.5 116.096 30.5H51.366ZM48.0787 31.7985C48.5832 30.4182 49.8964 29.5 51.366 29.5H116.096C118.395 29.5 120.07 31.6795 119.478 33.9013L105.91 84.8103C105.337 86.9577 103.283 88.3657 101.074 88.1249L33.484 80.7575C31.8704 80.5816 30.8496 78.9385 31.4069 77.414L48.0787 31.7985Z" fill="#000000"/>
<path fill-rule="evenodd" clip-rule="evenodd" d="M50.6359 32.8276C50.7082 32.6308 50.8956 32.5 51.1053 32.5H116C116.156 32.5 116.302 32.5724 116.397 32.6959C116.491 32.8194 116.523 32.9798 116.483 33.13L102.746 84.13C102.682 84.3675 102.455 84.5232 102.21 84.4972L34.9472 77.3477C34.794 77.3314 34.6568 77.2454 34.5754 77.1146C34.4941 76.9837 34.4775 76.8227 34.5307 76.6781L50.6359 32.8276ZM51.4543 33.5L35.6904 76.421L101.891 83.4577L115.348 33.5H51.4543Z" fill="#000000"/>
<path fill-rule="evenodd" clip-rule="evenodd" d="M112.137 53.5192C112.403 53.5951 112.557 53.8718 112.481 54.1374L110.481 61.1374C110.405 61.4029 110.128 61.5566 109.863 61.4808C109.597 61.4049 109.443 61.1282 109.519 60.8626L111.519 53.8626C111.595 53.5971 111.872 53.4434 112.137 53.5192Z" fill="#000000"/>
<path fill-rule="evenodd" clip-rule="evenodd" d="M36.6042 80.5062C36.6489 80.4991 36.6944 80.4981 36.7395 80.5033L108.057 88.6851C108.297 88.7126 108.483 88.9073 108.499 89.148C108.515 89.3887 108.357 89.6067 108.124 89.6663L81.3794 96.4845C81.316 96.5007 81.2501 96.5042 81.1853 96.495L7.92936 86.0404C7.68445 86.0055 7.50192 85.7967 7.50002 85.5493C7.49811 85.3019 7.6774 85.0903 7.92174 85.0516L36.6042 80.5062ZM36.6933 81.5045L11.3577 85.5196L81.2284 95.491L105.243 89.3688L36.6933 81.5045Z" fill="#000000"/>
</svg>